<svg width="365" height="342" viewBox="0 0 365 342" fill="none" xmlns="http://www.w3.org/2000/svg">
<path d="M358.677 146.708C364.598 140.317 367.502 124.825 360.897 126.281C355.137 126.94 356.376 140.904 356.472 137.632C356.497 136.812 358.274 131.948 359.94 131.176C360.784 130.381 362.401 131.249 363.174 132.905C363.849 137.833 359.61 142.632 358.677 146.708Z" fill="#E2BE7F"/>
<path d="M359.087 162.907C359.24 160.086 359.191 157.786 358.934 156.002C358.685 154.04 358.21 152.955 357.695 152.746C356.11 152.48 355.217 152.786 354.807 153.646C354.228 154.498 353.801 155.889 353.343 157.811C352.9 159.555 352.241 161.822 351.211 164.419C350.358 167.024 348.782 169.942 346.497 173.005C344.566 175.907 342.338 177.901 339.964 179.187C337.591 180.473 335.057 181.398 332.539 182.145C330.021 182.893 327.334 183.448 324.462 184.179C321.598 184.734 318.71 185.811 315.621 187.234C308.67 191.455 302.516 197.139 296.989 204.261C291.471 211.384 286.282 218.893 281.584 227.117C276.894 235.172 272.381 243.244 268.39 251.516C264.223 259.595 260.104 266.976 256.042 273.302C252.148 279.806 247.973 284.887 243.701 288.553C239.437 292.211 234.924 293.738 230.017 292.934C224.064 291.72 219.969 288.842 217.741 284.3C215.689 279.597 215.094 274.428 215.601 268.439C216.1 262.457 217.491 256.516 219.953 250.278C222.23 244.216 224.82 239.047 227.692 234.955C229.824 231.538 230.661 229.279 230.355 228.379C229.888 227.294 228.786 227.937 227.073 230.148C222.109 236.772 217.998 243.975 214.555 251.926C211.297 259.708 209.495 266.686 209.173 272.683C208.98 276.213 209.133 279.927 209.801 283.858C210.299 287.781 211.337 291.375 212.745 294.807C214.145 298.248 216.1 301.359 218.449 303.787C220.975 306.231 223.887 307.976 227.563 308.707C234.377 310.323 240.644 309.069 246.324 305.484C252.188 301.737 257.433 296.536 262.397 289.912C267.353 283.287 272.196 275.762 276.54 267.514C280.892 259.089 285.22 251.186 289.347 243.63C293.482 235.888 297.569 229.215 301.599 223.427C305.638 217.631 309.917 213.796 314.245 212.268C317.198 210.13 319.933 208.691 322.805 207.959C325.508 207.051 328.034 206.295 330.729 205.564C333.416 205.001 335.934 204.253 338.468 203.152C341.171 202.243 343.737 200.612 346.513 198.465C348.548 196.809 350.439 194.614 352.007 191.688C353.584 188.77 354.823 185.65 355.885 182.354C356.778 179.042 357.663 175.722 358.21 172.217C358.757 168.905 359.103 165.737 359.087 162.907Z" fill="#E2BE7F"/>
<path d="M340.713 71.9995C340.254 71.6538 339.788 71.6297 339.12 72.2246C335.846 74.564 332.571 76.9035 329.434 79.4117C326.465 81.928 323.175 84.4202 319.877 87.0731C316.747 89.5733 313.143 92.2102 309.378 94.6863C305.622 97.1544 301.245 99.4295 296.547 101.697C293.49 102.943 290.256 104.341 286.885 105.579C283.354 106.801 279.983 107.879 276.781 108.964C273.426 109.88 270.369 110.974 267.65 111.77C264.762 112.71 262.518 113.53 260.893 114.238C257.184 115.926 254.095 117.646 251.778 119.721C249.3 121.787 247.45 123.901 246.09 125.871C244.554 127.993 243.661 129.987 242.929 131.836C242.342 133.845 241.939 135.558 241.698 136.965C241.392 139.778 241.714 142.472 242.832 145.052C243.806 147.464 245.423 149.45 247.394 150.969C249.526 152.344 251.834 153.26 254.666 153.413C257.49 153.566 260.523 152.786 263.467 150.897C267.031 149.048 269.718 146.041 271.335 142.351C272.96 138.661 273.805 134.617 274.022 130.533C274.062 129.754 273.933 129.271 273.644 128.781C273.354 128.29 272.719 128.419 271.737 129.151C271.045 130.212 269.855 131.884 268.31 134.151C266.613 136.418 264.778 138.211 262.992 139.216C261.528 140.076 259.935 140.462 258.19 140.687C256.436 141.065 254.706 140.968 253.146 140.727C251.585 140.333 250.362 139.795 249.3 139.103C248.246 138.259 247.683 136.965 247.764 135.558C247.892 133.202 248.946 131.217 251.086 129.44C253.073 127.655 255.044 126.192 256.846 125.026C258.962 123.724 261.866 122.47 265.551 121.256C269.082 120.034 273.089 118.836 277.425 117.341C281.745 116.006 286.234 114.672 290.884 113.193C295.533 111.713 299.886 109.905 303.932 107.919C301.31 112.662 298.985 117.727 296.644 123.105C294.311 128.331 292.122 133.717 289.958 138.79C287.786 144.023 285.461 149.088 283.305 154.008C281.157 158.775 278.873 163.052 276.315 166.694C273.909 170.336 271.383 173.35 268.592 175.4C265.792 177.611 262.904 178.552 259.766 178.383V178.407C258.399 178.295 257.257 177.885 256.428 177.097C255.374 176.253 254.489 175.103 253.773 173.801C253.065 172.345 252.51 170.898 251.971 169.299C251.585 167.707 251.038 166.26 250.33 164.805C249.461 163.342 248.584 162.192 247.378 161.179C246.171 160.174 244.618 159.764 242.583 159.66C239.598 159.499 236.992 161.091 234.594 164.58C232.044 168.061 229.591 172.49 227.081 178.182C224.555 184.026 221.683 190.482 218.77 197.717C215.842 205.113 212.286 212.63 208.087 220.275C204.041 228.082 199.061 235.526 193.462 242.938C187.871 250.19 181.21 256.75 173.495 262.465C165.78 268.181 156.713 272.724 146.593 276.269C136.328 279.645 124.43 281.197 111.212 280.948C103.176 280.98 95.702 279.316 88.7916 276.1C81.7202 272.884 75.8154 268.624 70.7552 263.157C68.7682 260.938 66.9742 258.534 65.3733 255.978C64.963 256.396 64.5527 256.798 64.1505 257.232C61.2303 260.319 58.2859 263.824 55.1645 267.771C56.8298 271.027 58.7203 274.138 60.8602 277.097C66.2663 284.79 73.1606 291.15 81.5593 296.013C89.8052 300.869 99.2658 303.434 109.965 303.699C124.591 304.181 137.945 301.922 149.545 297.042C161.315 292.179 171.91 285.514 181.193 277.049C190.477 268.583 198.723 258.8 205.81 247.384C212.882 236.121 219.044 224.175 224.603 211.891C225.528 209.27 226.799 206.183 228.102 202.477C229.422 198.61 231.031 195.08 232.64 191.551C234.096 188.006 235.825 185.112 237.7 182.539C239.566 180.127 241.521 178.97 243.556 179.082C245.125 179.171 246.324 180.336 246.831 182.563C247.498 184.798 248.311 187.21 249.107 189.927C250.056 192.653 251.183 195.233 252.792 197.524C254.055 199.518 255.969 200.829 258.512 201.343L258.503 201.456C258.656 201.448 258.809 201.423 258.962 201.415C259.195 201.456 259.413 201.496 259.654 201.52L259.662 201.351C264.706 200.853 269.139 199.124 272.807 196.254C276.749 193.32 280.281 189.26 283.056 184.533C286 179.653 288.502 174.283 290.57 168.101C292.79 162.079 295.019 155.905 297.255 149.578C299.491 143.243 301.873 137.077 304.415 130.927C307.118 124.777 310.247 119.278 314.149 114.294C315.171 112.935 316.514 111.432 318.179 109.639C319.853 107.839 321.679 106.046 323.682 104.116C325.669 102.332 327.664 100.402 329.804 98.6255C331.952 96.8569 333.931 95.233 335.902 93.7698C336.071 93.6171 336.562 93.1749 337.39 92.5881C338.042 92.1539 338.565 91.2294 338.782 90.1441C339.096 87.3304 339.393 84.8302 339.675 82.4827L340.882 74.8374C341.107 73.4305 341.002 72.4819 340.713 71.9995Z" fill="#E2BE7F"/>
<path d="M57.5297 227.125C57.1355 223.17 57.1596 219.078 57.6262 214.849C60.5384 170.167 106.184 151.669 138.806 131.144C100.207 140.848 61.9945 167.618 49.4849 206.102C48.6805 209.318 48.061 212.678 47.6346 216.192C46.3555 225.766 46.8302 235.285 48.9057 244.474C51.834 241.009 55.0841 237.488 58.664 233.894C58.1491 231.691 57.7549 229.432 57.5297 227.125Z" fill="#E2BE7F"/>
<path d="M65.502 253.373C68.7601 250.037 72.0022 247.143 75.2201 244.514C78.6793 241.716 82.1225 239.224 85.5495 237.206C88.9685 235.188 92.2186 233.323 95.6135 231.619C98.051 230.341 101.108 229.087 104.632 228.017C108.163 226.795 111.695 225.573 115.082 224.183C118.461 222.792 121.711 221.079 124.792 219.367C127.728 217.478 130.069 215.09 131.791 212.349C133.882 208.683 135.523 204.527 136.569 199.703C137.615 195.04 138.194 190.193 138.468 185.168C138.516 184.228 138.227 183.898 137.438 183.85C136.658 183.809 135.531 184.219 134.236 184.774C132.933 185.49 131.477 186.358 129.675 187.516C128.042 188.529 126.248 189.694 124.293 190.844C122.322 192.307 120.045 193.601 117.463 194.719C114.889 195.683 112.524 195.86 110.199 195.113C109.579 194.92 108.799 194.719 108.187 194.373C107.729 194.108 107.238 193.939 106.707 193.786C107.077 191.165 108.131 188.802 109.877 186.591C111.751 184.01 114.253 181.478 117.375 179.131C120.335 176.775 123.617 174.436 127.052 172.104C130.487 169.773 133.778 167.273 136.899 164.773C139.868 162.256 142.691 159.579 144.912 156.556C147.116 153.686 148.717 150.31 149.377 146.877C151.782 154.723 154.026 162.714 156.11 170.697C158.033 178.672 161.049 186.864 165.007 195.113C166.56 198.344 168.145 201.11 170.076 203.256C171.845 205.395 173.792 207.236 175.932 208.458C177.903 209.824 180.059 210.733 182.231 211.32C183.575 211.682 184.862 211.971 186.173 212.18L186.165 212.317C186.326 212.301 186.479 212.268 186.632 212.244C187.291 212.333 187.951 212.413 188.627 212.445L188.659 211.923C193.502 210.95 197.83 208.675 201.539 204.969C205.867 200.644 209.31 195.322 212.005 189.324C214.547 183.166 216.325 176.494 217.33 169.62C218.183 162.586 218.223 156.13 217.282 150.262C216.341 144.385 214.555 139.561 211.932 135.799C209.471 131.892 205.939 130.115 201.506 130.509C200.71 130.622 200.01 132.005 199.383 134.802C198.755 137.6 198.12 140.719 197.613 144.152C197.106 147.593 196.623 150.712 196.301 153.686C195.988 156.5 195.738 158.213 195.722 158.534C195.505 159.627 195.803 159.796 196.47 159.209C197.138 158.614 197.83 157.392 198.393 155.688C202.858 157.505 205.891 159.724 207.645 162.176C209.254 164.467 210.058 167.024 209.929 169.379C209.64 171.887 208.715 174.347 207.001 176.928C205.296 179.356 203.284 181.446 200.975 183.367C198.667 185.289 196.221 186.728 193.8 187.861C191.515 188.713 189.632 189.188 188.031 189.22C184.057 188.786 180.944 187.692 178.579 185.924C175.86 183.729 173.672 180.61 172.167 176.446C170.389 171.622 168.362 165.375 166.093 157.851C163.986 150.181 161.588 142.335 159.022 134.489C155.812 124.078 152.401 114.455 148.789 105.596C145.177 96.7363 141.822 88.9945 138.878 82.2255C137.856 80.7543 136.939 80.2317 136.135 80.5051C135.169 80.7623 134.478 81.9923 133.874 84.3157C133.585 86.8159 133.134 89.3161 133.005 91.6636C132.724 94.011 132.434 96.3505 132.137 99.0195C134.775 105.451 136.98 111.239 138.886 116.698C140.801 121.996 142.707 127.607 144.743 133.54C143.938 136.651 142.378 139.393 139.876 141.933C137.535 144.481 134.719 146.998 131.59 149.514C128.46 152.014 125.17 154.675 121.711 157.32C118.259 159.965 114.937 163.092 111.904 166.702C108.726 170.151 106.136 174.259 104.004 178.705C102.041 183.126 100.658 188.504 100.304 194.558C100.304 194.566 100.304 194.574 100.304 194.574C100.304 194.622 100.296 194.662 100.296 194.711H100.32C100.529 196.576 100.722 198.73 101.044 201.206C101.374 203.9 101.848 206.601 102.5 209.157C94.3424 211.384 86.9252 214.608 80.3928 218.812C73.6996 223.17 67.7787 227.728 62.4691 232.632C61.1015 233.934 59.7822 235.221 58.5031 236.507C54.9232 240.1 51.6731 243.622 48.7448 247.086C48.6402 247.207 48.5276 247.328 48.4311 247.448C44.3765 252.424 40.684 256.629 37.5063 260.078C35.1653 262.626 32.7036 264.379 30.1293 265.344C27.6998 266.469 25.1496 267.112 22.9373 267.313C20.5641 267.498 18.3678 267.377 16.4934 266.959C14.4742 266.533 12.9296 265.979 11.8677 265.126C8.99572 262.924 7.08912 260.303 6.13984 257.578C5.19861 254.692 4.71592 251.99 4.87681 249.008C5.02966 246.186 5.65715 243.388 6.59839 240.607C7.69247 237.833 8.93137 235.381 10.1461 233.243C12.4067 229.271 15.6246 225.204 19.9527 221.031C24.4416 216.714 29.1076 211.931 34.2804 206.705C39.4451 201.472 44.65 195.619 49.8872 189.139C55.2852 182.668 59.7822 175.199 63.7 166.911C64.239 165.681 64.778 164.451 64.8584 163.036C65.0998 161.476 65.1641 160.375 64.8906 159.571C64.6171 158.775 64.1424 158.743 63.4908 159.185C62.6863 159.611 61.8014 161.3 60.3936 164.057C56.6608 171.879 52.1799 178.881 46.9508 185.2C41.5769 191.366 36.2191 197.211 30.8774 202.589C25.3829 207.951 20.3951 212.871 15.5522 217.807C10.8782 222.591 7.15348 227.422 4.53089 232.158C2.75301 235.84 1.44171 239.706 0.749866 243.758C-0.102877 247.81 -0.167243 251.741 0.251084 255.696C0.677455 259.491 1.73132 263.173 3.26786 266.879C4.80441 270.424 6.83973 273.528 9.52667 276.349C13.8708 280.522 18.1346 283.118 22.1811 284.123C26.3724 285.136 30.3223 285.04 34.0149 283.818C37.6913 282.765 41.1104 280.747 44.2558 277.925C47.5622 275.111 50.2572 271.799 52.8155 268.318C53.6602 267.225 54.4727 266.188 55.2852 265.159C58.4065 261.211 61.3509 257.706 64.2712 254.619C64.6895 254.185 65.0917 253.791 65.502 253.373Z" fill="#E2BE7F"/>
<path d="M149.023 236.531C148.612 236.507 148.894 235.076 149.457 232.407C150.012 229.746 150.792 226.892 151.798 223.628C152.804 220.372 153.793 217.526 154.766 214.881C155.941 212.252 156.85 210.854 157.478 210.886C158.097 210.918 159.722 211.416 162.184 211.971C164.629 212.727 167.276 213.699 169.899 214.873C172.537 216.055 174.951 217.229 176.962 218.579C178.949 220.139 179.914 221.433 179.842 222.679C179.753 224.327 179.44 226.385 178.659 229.247C177.887 231.892 176.922 234.537 175.94 237.182C174.758 239.811 173.808 242.038 172.666 244.048C171.524 245.856 170.655 246.636 169.85 246.178C167.22 244.996 163.793 243.356 159.746 241.274C155.925 239.385 152.281 237.737 149.023 236.531Z" fill="#E2BE7F"/>
<path d="M86.0805 331.474C85.6702 331.45 85.9517 330.019 86.5149 327.35C87.0699 324.689 87.8503 321.835 88.8559 318.571C89.8615 315.316 90.851 312.47 91.8244 309.825C92.9989 307.196 93.908 305.797 94.5355 305.829C95.1549 305.861 96.78 306.36 99.2417 306.915C101.687 307.67 104.334 308.643 106.957 309.817C109.595 310.999 112.009 312.172 114.02 313.523C116.007 315.082 116.972 316.377 116.9 317.623C116.811 319.271 116.498 321.329 115.717 324.191C114.945 326.836 113.98 329.481 112.998 332.126C111.816 334.754 110.866 336.981 109.724 338.991C108.582 340.8 107.713 341.58 106.908 341.122C104.278 339.94 100.851 338.3 96.8041 336.218C92.9828 334.336 89.3386 332.68 86.0805 331.474Z" fill="#E2BE7F"/>
<path d="M326.128 151.628C325.098 153.148 324.213 154.989 323.312 156.982C322.411 158.984 321.679 160.986 321.1 162.851C320.681 164.716 320.295 165.954 320.271 166.421C320.247 166.895 321.317 167.578 323.312 168.479C325.315 169.218 327.479 169.966 329.965 170.73C332.443 171.493 334.615 172.088 336.642 172.514C338.661 172.94 339.755 173.157 339.771 172.844C340.697 170.376 341.952 167.61 343.368 164.692C344.952 161.629 346.191 159.024 347.092 157.023C347.438 156.42 346.843 155.752 345.475 154.892C343.947 154.024 342.257 153.3 340.254 152.4C338.251 151.66 336.24 150.921 334.221 150.342C332.049 149.755 330.488 149.506 329.233 149.442C328.292 149.377 327.31 150.117 326.128 151.628Z" fill="#E2BE7F"/>
<path d="M314.02 128.507C312.991 130.027 312.106 131.868 311.205 133.862C310.304 135.863 309.572 137.865 308.992 139.73C308.574 141.595 308.188 142.833 308.164 143.3C308.14 143.774 309.21 144.457 311.205 145.358C313.208 146.097 315.372 146.845 317.858 147.609C320.335 148.372 322.507 148.967 324.535 149.393C326.554 149.819 327.648 150.037 327.664 149.723C328.589 147.255 329.844 144.489 331.26 141.571C332.845 138.508 334.084 135.904 334.985 133.902C335.331 133.299 334.736 132.632 333.368 131.771C331.839 130.903 330.15 130.18 328.147 129.279C326.144 128.54 324.133 127.8 322.113 127.221C319.941 126.634 318.381 126.385 317.126 126.321C316.184 126.264 315.203 127.004 314.02 128.507Z" fill="#E2BE7F"/>
<path d="M89.5075 92.0494C113.706 87.8127 136.618 79.9262 155.587 64.0166C170.985 51.1055 184.564 36.1606 196.342 19.7364C202.416 14.0848 205.81 5.7561 215.585 0C210.887 16.1589 200.501 26.1999 194.146 38.4437C180.204 56.4757 167.743 75.5207 155.185 95.7877C154.847 85.0553 160.374 77.4582 164.34 69.3225C164.839 68.3417 165.337 67.377 165.836 66.4042C164.34 65.6485 164.243 67.2001 163.551 67.7789C144.196 81.2366 124.14 93.3116 101.036 99.3652C85.6702 101.906 70.353 103.256 53.3062 97.2669C66.6685 95.2651 78.3334 95.2089 89.5075 92.0494Z" fill="#E2BE7F"/>
<path d="M252.068 34.5366C251.046 33.2423 250.225 32.149 248.97 31.4817C247.933 30.8145 246.879 30.5733 246.026 30.5492C245.173 30.525 244.53 30.935 244.079 31.7711C243.846 32.3982 243.814 33.4513 244.417 34.7537C245.222 36.257 246.428 38.8376 248.013 42.4874C249.831 45.9282 251.207 49.57 252.373 53.4208C253.122 56.8375 253.878 60.2542 254.2 63.8719C254.73 67.4895 254.425 70.8741 253.274 74.0254C252.816 75.2796 251.955 75.8986 250.877 76.2925C249.815 76.4774 248.987 75.6011 248.19 73.8807C247.796 72.6025 247.418 71.3162 247.032 70.0299C246.646 68.5346 246.259 67.2564 245.664 65.9621C245.069 64.4507 244.248 63.3734 243.227 62.0711C242.414 60.7687 240.958 59.6754 239.285 58.775C238.858 58.9679 238.633 59.394 238.207 59.595C237.346 59.9889 236.493 60.1818 235.858 60.1658C232.672 60.0773 230.58 59.1689 229.156 57.0063C227.933 55.0608 227.354 53.1395 227.62 51.2342C228.344 48.2837 229.446 46.8367 231.151 46.4588C232.64 46.29 234.337 46.3383 235.608 46.7965C238.118 47.93 240.202 49.2565 241.851 51.0091C243.717 52.7616 245.149 54.4981 246.372 56.2265C247.804 58.1801 249.003 60.5436 250.008 62.6981C250.073 60.5838 249.703 58.4534 248.922 56.2989C248.142 53.9434 247.136 51.7969 246.139 49.6504C245.133 47.5039 244.128 45.5584 242.913 43.621C241.698 41.6755 240.894 39.9631 240.097 38.2347C239.703 36.9564 239.333 35.2441 239.18 33.1217C239.027 31.2084 239.293 29.0941 239.775 27.1968C240.25 25.3076 240.934 23.6274 242.036 22.1723C242.921 20.9262 244.425 20.1222 246.131 20.1705C249.099 20.2589 251.392 21.8025 253.435 24.6162C255.269 27.2129 256.026 30.4205 255.704 34.2311C255.672 35.5013 255.237 35.9194 254.175 35.6702C253.105 35.63 252.478 35.1798 252.068 34.5366Z" fill="#E2BE7F"/>
<path d="M234.828 88.3755C236.195 87.6439 238.351 86.5506 241.095 85.0874C244.023 83.8253 246.959 82.3702 250.475 80.7302C253.789 79.2831 257.313 77.6511 261.021 76.0192C264.529 74.3872 267.86 72.9401 270.796 71.477C273.917 70.2148 276.451 68.9366 278.599 68.0442C280.755 66.9428 281.93 66.4042 282.316 66.2274C283.297 65.6726 283.885 65.5038 284.062 65.6968C284.247 65.8977 284.239 66.2836 284.021 67.2403C283.603 68.5748 283.185 69.7164 282.774 70.4801C282.372 71.2358 282.163 71.6217 281.962 71.8066C281.769 71.9915 280.586 72.7311 278.245 73.8245C276.089 74.9258 273.354 76.196 270.225 77.6431C266.902 79.2831 263.387 80.9151 259.469 82.74C255.76 84.3639 252.044 86.1888 248.335 87.8208C244.811 89.6457 241.489 91.2857 238.746 92.7489C235.809 94.204 233.854 95.3053 232.672 96.2379C232.905 94.8953 233.122 93.7457 233.356 92.5961C233.581 91.6394 233.79 90.6828 234.007 89.919C234.232 89.1312 234.442 88.5604 234.828 88.3755Z" fill="#E2BE7F"/>
<path d="M350.069 97.4116C341.573 107.822 339.297 129.89 350.02 127.736C356.625 126.281 353.93 105.716 353.785 110.628C353.737 112.268 352.732 118.796 349.409 120.34C348.564 121.135 346.135 120.243 345.379 117.767C343.118 111.151 349.063 103.939 350.069 97.4116Z" fill="#E2BE7F"/>
<path d="M193.059 280.361C184.564 290.772 182.288 312.839 193.011 310.685C199.616 309.23 196.921 288.665 196.776 293.577C196.728 295.217 195.722 301.745 192.4 303.289C191.555 304.085 189.126 303.192 188.369 300.716C186.109 294.1 192.054 286.889 193.059 280.361Z" fill="#E2BE7F"/>
<path d="M125.114 109.245C120.029 114.841 118.839 127.921 124.623 126.441C129.562 125.766 127.43 114.23 127.358 116.682C127.334 117.502 126.401 121.57 124.735 122.341C123.891 123.137 123.094 122.293 122.322 120.637C120.785 117.325 124.18 113.321 125.114 109.245Z" fill="#E2BE7F"/>
<path d="M236.726 260.351C231.642 265.947 230.452 279.026 236.236 277.547C241.175 276.872 239.043 265.336 238.971 267.788C238.947 268.608 238.014 272.675 236.348 273.447C235.504 274.243 234.707 273.399 233.935 271.743C232.398 268.423 235.793 264.419 236.726 260.351Z" fill="#E2BE7F"/>
<path d="M163.881 98.4085C158.797 104.004 157.606 117.084 163.39 115.604C168.33 114.929 166.198 103.393 166.126 105.845C166.101 106.665 165.168 110.733 163.503 111.504C162.658 112.3 161.862 111.456 161.09 109.8C159.545 106.488 162.94 102.484 163.881 98.4085Z" fill="#E2BE7F"/>
<path d="M226.96 145.141C221.876 150.736 220.685 163.816 226.469 162.337C231.409 161.661 229.277 150.125 229.205 152.577C229.18 153.397 228.247 157.465 226.582 158.237C225.737 159.032 224.941 158.188 224.169 156.532C222.624 153.212 226.019 149.209 226.96 145.141Z" fill="#E2BE7F"/>
<path d="M262.751 90.6828C257.667 96.2781 256.476 109.358 262.26 107.879C267.2 107.203 265.068 95.6671 264.996 98.1191C264.971 98.9391 264.038 103.007 262.373 103.779C261.528 104.575 260.732 103.73 259.96 102.074C258.415 98.7622 261.81 94.7587 262.751 90.6828Z" fill="#E2BE7F"/>
<path d="M306.072 162.57C300.988 168.165 299.797 181.245 305.581 179.766C310.521 179.09 308.389 167.554 308.317 170.006C308.292 170.826 307.359 174.894 305.694 175.666C304.849 176.462 304.053 175.617 303.281 173.961C301.744 170.641 305.139 166.646 306.072 162.57Z" fill="#E2BE7F"/>
<path d="M23.8785 229.979C15.3994 239.57 13.1308 261.637 23.0338 259.467C30.4591 258.036 27.74 238.291 27.6193 242.383C27.5711 244.023 25.7449 250.527 23.243 252.095C21.5536 253.687 19.1482 251.974 18.392 249.498C16.1073 243.694 22.0524 236.483 23.8785 229.979Z" fill="#E2BE7F"/>
<path d="M96.4743 260.954C102.395 254.563 105.299 239.071 98.6946 240.526C92.9346 241.186 94.1735 255.15 94.27 251.878C94.2942 251.058 96.072 246.194 97.7373 245.422C98.582 244.626 100.199 245.495 100.971 247.151C101.647 252.087 97.4075 256.886 96.4743 260.954Z" fill="#E2BE7F"/>
<path d="M277.384 217.044C283.305 210.653 286.21 195.161 279.605 196.616C273.845 197.275 275.084 211.239 275.18 207.967C275.204 207.147 276.982 202.284 278.647 201.512C279.492 200.716 281.109 201.584 281.881 203.24C282.565 208.168 278.326 212.968 277.384 217.044Z" fill="#E2BE7F"/>
<path d="M128.943 234.087C121.284 243.702 118.992 266.59 128.895 264.411C136.344 262.168 133.625 242.416 132.66 247.303C132.635 248.123 131.63 254.651 129.104 257.039C127.438 257.811 125.033 256.106 124.277 253.622C121.992 247.826 127.937 240.615 128.943 234.087Z" fill="#E2BE7F"/>
<path d="M281.439 98.312C302.259 87.4269 308.88 85.1598 324.165 66.7419C324.937 68.406 326.554 69.2662 328.171 70.1344C332.411 65.335 330.769 65.2868 326.787 61.0822C331.493 39.9068 316.627 43.5808 314.567 58.2765C316.957 60.8009 319.346 63.3332 320.939 65.0134C309.097 77.7878 294.882 87.2178 281.439 98.312Z" fill="#E2BE7F"/>
<path d="M151.162 210.146C159.851 193.183 160.173 181.719 144.131 168.969C144.035 172.249 143.946 175.521 143.85 178.801C155.82 190.611 153.222 195.45 151.162 210.146Z" fill="#E2BE7F"/>
<path d="M88.3008 193.231C89.9419 193.28 90.7866 192.484 90.7384 194.124C90.7142 194.944 73.0721 210.017 70.4897 214.037C84.5278 210.339 97.0776 201.681 95.0664 186.052C94.3424 182.756 92.7737 180.248 88.6306 181.768C81.9776 184.855 80.2963 186.446 72.9032 187.057C72.7825 191.149 72.694 194.429 71.7528 198.497C81.5593 199.599 81.6076 197.959 88.3008 193.231Z" fill="#E2BE7F"/>
<path d="M9.03595 206.705C21.4088 197.42 51.1743 180.063 49.2838 158.036C49.0022 154.772 47.0876 151.644 44.1513 146.138C43.1939 144.578 43.0572 142.946 44.7546 143.621C46.5325 145.117 46.7417 147.56 49.1873 147.351C50.6836 145.575 50.748 146.395 50.5388 143.943C48.8092 133.403 32.8323 138.886 43.0009 151.99C45.728 155.045 47.7151 158.984 46.2188 160.761C46.2912 161.581 45.3338 160.013 44.4409 159.266C42.4538 155.326 40.6116 153.011 37.9488 150.776C36.1709 149.281 35.286 148.541 33.7333 149.49C31.3521 150.519 31.6336 153.783 32.7277 156.974C34.6424 160.102 38.8578 161.38 40.145 157.159C41.9872 159.467 46.4279 163.197 44.9316 164.974C35.1251 184.734 21.0548 193.344 9.03595 206.705Z" fill="#E2BE7F"/>
<path d="M253.998 240.076C256.307 235.775 256.428 231.41 255.591 222.647C255.656 220.46 256.806 218.314 257.836 220.525C259.96 222.768 258.769 226.016 262.019 227.197C264.231 226.168 264.207 227.262 264.296 223.99C269.034 211.03 247.289 207.131 251.038 229.07C252.003 233.468 252.912 240.044 249.574 242.134C248.48 242.102 248.544 239.923 248.608 237.737C248.761 232.278 247.796 227.881 245.704 224.544C244.707 221.24 243.677 219.029 241.457 220.058C238.182 219.962 236.992 223.21 236.871 227.575C236.718 233.034 239.864 237.488 244.361 233.251C245.262 239.827 245.889 256.227 253.998 240.076Z" fill="#E2BE7F"/>
<path d="M197.725 117.108C199.085 111.199 197.122 106.769 194.29 97.4197C193.309 95.2008 193.43 92.4996 195.521 94.22C199.214 96.5595 198.474 100.869 201.177 100.989C204.008 98.4085 203.397 100.008 204.137 95.6993C203.783 79.9504 179.641 85.3447 191.692 106.52C193.655 110.95 196.607 117.598 193.775 120.179C193.775 120.179 193.285 119.069 192.303 116.859C189.842 111.32 187.879 106.89 183.205 102.332C182.223 100.113 180.132 98.3924 177.911 99.3732C174.589 100.844 174.331 106.263 175.812 109.583C177.163 115.612 182.457 118.571 185.409 113.281C189.472 119.431 195.738 136.547 197.725 117.108Z" fill="#E2BE7F"/>
<path d="M233.629 108.916C233.533 112.188 232.696 112.984 235.922 114.72C235.874 116.36 235.029 117.156 234.192 117.952C234.192 117.952 233.372 117.928 231.731 117.88C230.958 116.215 229.365 114.535 228.569 113.691C227.7 115.307 227.7 115.307 228.472 116.971C229.269 117.815 229.269 117.815 230.065 118.659C229.945 122.751 228.263 124.343 224.168 124.231C222.576 122.542 221.803 120.886 220.21 119.198C220.138 121.658 220.87 124.954 221.618 127.438C226.324 134.947 230.564 130.155 232.366 124.464C242.229 123.917 238.408 113.972 233.629 108.916Z" fill="#E2BE7F"/>
<path d="M83.0074 126.932C82.9109 130.204 82.0742 131 85.3001 132.736C85.2519 134.376 84.4072 135.172 83.5705 135.968C83.5705 135.968 82.7499 135.944 81.1088 135.896C80.3365 134.231 78.7437 132.551 77.9472 131.707C77.0784 133.323 77.0784 133.323 77.8507 134.987C78.6471 135.831 78.6471 135.831 79.4436 136.675C79.3229 140.767 77.6415 142.359 73.5468 142.247C71.9539 140.558 71.1816 138.902 69.5888 137.214C69.5164 139.674 70.2484 142.97 70.9966 145.454C75.7028 152.963 79.9423 148.171 81.7444 142.48C91.5992 141.933 87.786 131.988 83.0074 126.932Z" fill="#E2BE7F"/>
<path d="M238.738 195.796C237.096 195.748 234.57 198.135 234.498 200.595C234.426 203.055 236.839 204.76 238.48 204.808C241.762 204.904 243.444 203.313 243.516 200.853C243.58 198.393 242.012 195.884 238.738 195.796Z" fill="#E2BE7F"/>
<path d="M198.651 264.733C197.009 264.684 194.483 267.072 194.411 269.532C194.339 271.992 196.752 273.696 198.393 273.745C201.675 273.841 203.357 272.249 203.429 269.789C203.502 267.329 201.925 264.829 198.651 264.733Z" fill="#E2BE7F"/>
<path d="M112.033 260.866C110.392 260.817 107.866 263.205 107.793 265.665C107.721 268.125 110.134 269.829 111.775 269.878C115.058 269.974 116.739 268.382 116.811 265.922C116.876 263.462 115.307 260.962 112.033 260.866Z" fill="#E2BE7F"/>
<path d="M33.2747 216.36C31.6336 216.312 29.1076 218.7 29.0352 221.16C28.9628 223.62 31.3762 225.324 33.0173 225.372C36.2996 225.469 37.9809 223.877 38.0533 221.417C38.1257 218.957 36.557 216.457 33.2747 216.36Z" fill="#E2BE7F"/>
<path d="M185.554 160.102C183.913 160.053 181.387 162.441 181.314 164.901C181.242 167.361 183.655 169.065 185.296 169.114C188.579 169.21 190.26 167.618 190.332 165.158C190.405 162.698 188.836 160.19 185.554 160.102Z" fill="#E2BE7F"/>
<path d="M106.297 125.444C104.656 125.396 102.13 127.784 102.057 130.244C101.985 132.704 104.398 134.408 106.039 134.456C109.322 134.553 111.003 132.961 111.075 130.501C111.148 128.041 109.579 125.541 106.297 125.444Z" fill="#E2BE7F"/>
<path d="M63.3943 139.996C61.7532 139.947 60.9085 140.743 60.8683 142.383C60.8441 143.203 61.6406 144.047 63.2817 144.088C64.1023 144.112 65.7675 143.34 65.7836 142.52C65.8319 140.88 64.2149 140.02 63.3943 139.996Z" fill="#E2BE7F"/>
<path d="M101.615 163.229C99.9738 163.181 99.129 163.977 99.0888 165.617C99.0647 166.437 99.8611 167.281 101.502 167.321C102.323 167.345 103.988 166.573 104.004 165.753C104.044 164.121 102.427 163.253 101.615 163.229Z" fill="#E2BE7F"/>
<path d="M141.774 219.037C140.133 218.989 139.288 219.785 139.248 221.425C139.224 222.245 140.02 223.089 141.662 223.129C142.482 223.154 144.147 222.382 144.164 221.562C144.212 219.93 142.595 219.062 141.774 219.037Z" fill="#E2BE7F"/>
<path d="M36.9512 239.554C35.3101 239.505 34.4654 240.301 34.4252 241.941C34.4011 242.761 35.1975 243.605 36.8386 243.646C37.6592 243.67 39.3244 242.898 39.3405 242.078C39.3888 240.446 37.7718 239.578 36.9512 239.554Z" fill="#E2BE7F"/>
<path d="M63.2897 217.775C61.6486 217.727 60.8039 218.523 60.7637 220.163C60.7395 220.983 61.536 221.827 63.1771 221.867C63.9976 221.891 65.6629 221.12 65.679 220.3C65.7273 218.66 64.1103 217.799 63.2897 217.775Z" fill="#E2BE7F"/>
<path d="M154.034 256.701C152.393 256.653 151.549 257.449 151.508 259.089C151.484 259.909 152.281 260.753 153.922 260.793C154.742 260.817 156.408 260.046 156.424 259.226C156.472 257.586 154.855 256.725 154.034 256.701Z" fill="#E2BE7F"/>
<path d="M191.619 223.459C189.978 223.411 189.134 224.207 189.093 225.847C189.069 226.667 189.866 227.511 191.507 227.551C192.327 227.575 193.993 226.803 194.009 225.983C194.049 224.351 192.44 223.483 191.619 223.459Z" fill="#E2BE7F"/>
<path d="M206.929 297.621C205.288 297.573 204.443 298.369 204.403 300.009C204.378 300.829 205.175 301.673 206.816 301.713C207.637 301.737 209.302 300.966 209.318 300.146C209.366 298.514 207.749 297.645 206.929 297.621Z" fill="#E2BE7F"/>
<path d="M174.275 296.89C172.634 296.841 171.789 297.637 171.749 299.277C171.725 300.097 172.521 300.941 174.162 300.982C174.983 301.006 176.648 300.234 176.664 299.414C176.713 297.782 175.096 296.914 174.275 296.89Z" fill="#E2BE7F"/>
<path d="M252.542 257.875C250.901 257.827 250.056 258.623 250.016 260.263C249.992 261.083 250.789 261.927 252.43 261.967C253.25 261.991 254.915 261.219 254.932 260.399C254.972 258.759 253.355 257.899 252.542 257.875Z" fill="#E2BE7F"/>
<path d="M293.506 184.42C291.865 184.372 291.02 185.168 290.98 186.808C290.956 187.628 291.752 188.472 293.394 188.512C294.214 188.537 295.879 187.765 295.895 186.945C295.944 185.305 294.327 184.445 293.506 184.42Z" fill="#E2BE7F"/>
<path d="M328.903 111.352C327.262 111.303 326.417 112.099 326.377 113.739C326.353 114.559 327.149 115.403 328.79 115.444C329.611 115.468 331.276 114.696 331.292 113.876C331.341 112.244 329.724 111.376 328.903 111.352Z" fill="#E2BE7F"/>
<path d="M245.431 101.552C243.79 101.504 242.945 102.299 242.905 103.939C242.881 104.759 243.677 105.604 245.318 105.644C246.139 105.668 247.804 104.896 247.82 104.076C247.868 102.444 246.251 101.576 245.431 101.552Z" fill="#E2BE7F"/>
<path d="M283.12 82.4586C281.479 82.4104 280.635 83.2063 280.594 84.8463C280.57 85.6663 281.367 86.5104 283.008 86.5506C283.828 86.5747 285.494 85.8029 285.51 84.9829C285.558 83.3429 283.941 82.4827 283.12 82.4586Z" fill="#E2BE7F"/>
<path d="M181.21 75.7539C179.568 75.7056 178.724 76.5015 178.684 78.1415C178.659 78.9615 179.456 79.8056 181.097 79.8458C181.918 79.87 183.583 79.0982 183.599 78.2782C183.647 76.6382 182.03 75.778 181.21 75.7539Z" fill="#E2BE7F"/>
<path d="M279.629 52.2632C277.988 52.215 277.143 53.0108 277.103 54.6508C277.079 55.4708 277.875 56.315 279.516 56.3552C280.337 56.3793 282.002 55.6075 282.018 54.7875C282.058 53.1475 280.449 52.2873 279.629 52.2632Z" fill="#E2BE7F"/>
<path d="M345.869 137.206C344.228 137.158 343.384 137.954 343.343 139.594C343.319 140.414 344.116 141.258 345.757 141.298C346.577 141.322 348.243 140.55 348.259 139.73C348.307 138.09 346.69 137.222 345.869 137.206Z" fill="#E2BE7F"/>
<path d="M52.9602 286.728C51.3191 286.68 50.4744 287.476 50.4342 289.116C50.4101 289.936 51.2065 290.78 52.8476 290.82C53.6682 290.844 55.3334 290.072 55.3495 289.252C55.3978 287.62 53.7808 286.752 52.9602 286.728Z" fill="#E2BE7F"/>
<path d="M171.451 134.247C169.81 134.199 168.965 134.995 168.925 136.635C168.901 137.455 169.698 138.299 171.339 138.339C172.159 138.364 173.825 137.592 173.841 136.772C173.889 135.14 172.272 134.272 171.451 134.247Z" fill="#E2BE7F"/>
<path d="M213.767 76.3166C212.126 76.2684 211.281 77.0643 211.241 78.7043C211.216 79.5243 212.013 80.3684 213.654 80.4086C214.475 80.4327 216.14 79.6609 216.156 78.8409C216.204 77.2009 214.587 76.3407 213.767 76.3166Z" fill="#E2BE7F"/>
<path d="M80.8111 253.751C79.17 253.703 78.3253 254.499 78.2851 256.139C78.261 256.959 79.0574 257.803 80.6985 257.843C81.5191 257.867 83.1843 257.095 83.2004 256.275C83.2407 254.643 81.6317 253.775 80.8111 253.751Z" fill="#E2BE7F"/>
</svg>
