<svg width="31" height="32" viewBox="0 0 31 32" fill="none" xmlns="http://www.w3.org/2000/svg">
<path d="M10.0105 2.66663V6.66663H9.04175C8.70591 6.66663 8.383 6.67996 8.073 6.73329V2.66663C8.073 2.11996 8.51216 1.66663 9.04175 1.66663C9.57133 1.66663 10.0105 2.11996 10.0105 2.66663Z" fill="#202020"/>
<path d="M21.9583 6.66663H9.04158C8.70575 6.66663 8.38283 6.67996 8.07283 6.73329C4.74034 7.13329 2.58325 9.67996 2.58325 13.3333V22.6666C2.58325 26.6666 5.16658 29.3333 9.04158 29.3333H21.9583C25.8333 29.3333 28.4166 26.6666 28.4166 22.6666V13.3333C28.4166 9.33329 25.8333 6.66663 21.9583 6.66663ZM10.1783 21.3333C8.39575 21.3333 6.94909 19.84 6.94909 18C6.94909 16.16 8.39575 14.6666 10.1783 14.6666C11.9608 14.6666 13.4074 16.16 13.4074 18C13.4074 19.84 11.9608 21.3333 10.1783 21.3333ZM18.5741 21.6666H17.9283C17.3987 21.6666 16.9595 21.2133 16.9595 20.6666C16.9595 20.12 17.3987 19.6666 17.9283 19.6666H18.5741C19.1037 19.6666 19.5428 20.12 19.5428 20.6666C19.5428 21.2133 19.1037 21.6666 18.5741 21.6666ZM23.0949 21.6666H22.4491C21.9195 21.6666 21.4803 21.2133 21.4803 20.6666C21.4803 20.12 21.9195 19.6666 22.4491 19.6666H23.0949C23.6245 19.6666 24.0637 20.12 24.0637 20.6666C24.0637 21.2133 23.6245 21.6666 23.0949 21.6666ZM23.0949 16.3333H17.9283C17.3987 16.3333 16.9595 15.88 16.9595 15.3333C16.9595 14.7866 17.3987 14.3333 17.9283 14.3333H23.0949C23.6245 14.3333 24.0637 14.7866 24.0637 15.3333C24.0637 15.88 23.6245 16.3333 23.0949 16.3333Z" fill="#202020"/>
</svg>
